<svg height="445.9824pt" stroke-linejoin="round" viewBox="0 0 733.274 445.9824" width="733.274pt" xmlns="http://www.w3.org/2000/svg" xmlns:xlink="http://www.w3.org/1999/xlink"><defs stroke-linejoin="round"><clipPath id="a" stroke-linejoin="round"><path d="m35.306 7.2h690.768v431.5824h-690.768z"/></clipPath><path id="b" d="m19.671875 64.796875v-27.390625h12.40625q6.890625 0 10.640625 3.5625 3.765625 3.5625 3.765625 10.15625 0 6.546875-3.765625 10.109375-3.75 3.5625-10.640625 3.5625zm-9.859375 8.109375h22.265625q12.265625 0 18.53125-5.546875 6.28125-5.546875 6.28125-16.234375 0-10.796875-6.28125-16.3125-6.265625-5.515625-18.53125-5.515625h-12.40625v-29.296875h-9.859375z" stroke-linejoin="round"/><path id="c" d="m34.28125 27.484375q-10.890625 0-15.09375-2.484375-4.203125-2.484375-4.203125-8.5 0-4.78125 3.15625-7.59375 3.15625-2.796875 8.5625-2.796875 7.484375 0 12 5.296875 4.515625 5.296875 4.515625 14.078125v2zm17.921875 3.71875v-31.203125h-8.984375v8.296875q-3.078125-4.96875-7.671875-7.34375-4.59375-2.375-11.234375-2.375-8.390625 0-13.359375 4.71875-4.953125 4.71875-4.953125 12.625 0 9.21875 6.171875 13.90625 6.1875 4.6875 18.4375 4.6875h12.609375v.890625q0 6.203125-4.078125 9.59375-4.078125 3.390625-11.453125 3.390625-4.6875 0-9.140625-1.125-4.4375-1.125-8.53125-3.375v8.3125q4.921875 1.90625 9.5625 2.84375 4.640625.953125 9.03125.953125 11.875 0 17.734375-6.15625 5.859375-6.140625 5.859375-18.640625z" stroke-linejoin="round"/><path id="d" d="m41.109375 46.296875q-1.515625.875-3.296875 1.28125-1.78125.421875-3.921875.421875-7.625 0-11.703125-4.953125-4.078125-4.953125-4.078125-14.234375v-28.8125h-9.03125v54.6875h9.03125v-8.5q2.84375 4.984375 7.375 7.390625 4.546875 2.421875 11.046875 2.421875.921875 0 2.046875-.125 1.125-.109375 2.484375-.359375z" stroke-linejoin="round"/><path id="e" d="m18.3125 70.21875v-15.53125h18.5v-6.984375h-18.5v-29.6875q0-6.6875 1.828125-8.59375 1.828125-1.90625 7.453125-1.90625h9.21875v-7.515625h-9.21875q-10.40625 0-14.359375 3.875-3.953125 3.890625-3.953125 14.140625v29.6875h-6.59375v6.984375h6.59375v15.53125z" stroke-linejoin="round"/><path id="f" d="m9.421875 54.6875h8.984375v-54.6875h-8.984375zm0 21.296875h8.984375v-11.390625h-8.984375z" stroke-linejoin="round"/><path id="g" d="m48.78125 52.59375v-8.40625q-3.8125 2.109375-7.640625 3.15625-3.828125 1.046875-7.734375 1.046875-8.75 0-13.59375-5.546875-4.828125-5.53125-4.828125-15.546875 0-10.015625 4.828125-15.5625 4.84375-5.53125 13.59375-5.53125 3.90625 0 7.734375 1.046875 3.828125 1.046875 7.640625 3.15625v-8.3125q-3.765625-1.75-7.796875-2.625-4.015625-.890625-8.5625-.890625-12.359375 0-19.640625 7.765625-7.265625 7.765625-7.265625 20.953125 0 13.375 7.34375 21.03125 7.359375 7.671875 20.15625 7.671875 4.140625 0 8.09375-.859375 3.953125-.84375 7.671875-2.546875z" stroke-linejoin="round"/><path id="h" d="m9.421875 75.984375h8.984375v-75.984375h-8.984375z" stroke-linejoin="round"/><path id="i" d="m56.203125 29.59375v-4.390625h-41.3125q.59375-9.28125 5.59375-14.140625 5-4.859375 13.9375-4.859375 5.171875 0 10.03125 1.265625 4.859375 1.265625 9.65625 3.8125v-8.5q-4.84375-2.046875-9.921875-3.125-5.078125-1.078125-10.296875-1.078125-13.09375 0-20.734375 7.609375-7.640625 7.625-7.640625 20.625 0 13.421875 7.25 21.296875 7.25 7.890625 19.5625 7.890625 11.03125 0 17.453125-7.109375 6.421875-7.09375 6.421875-19.296875zm-8.984375 2.640625q-.09375 7.359375-4.125 11.75-4.03125 4.40625-10.671875 4.40625-7.515625 0-12.03125-4.25-4.515625-4.25-5.203125-11.96875z" stroke-linejoin="round"/><path id="j" d="m34.1875 63.1875-13.390625-36.28125h26.8125zm-5.578125 9.71875h11.1875l27.78125-72.90625h-10.25l-6.640625 18.703125h-32.859375l-6.640625-18.703125h-10.40625z" stroke-linejoin="round"/><path id="k" d="m45.40625 27.984375q0 9.765625-4.03125 15.125-4.015625 5.375-11.296875 5.375-7.21875 0-11.25-5.375-4.03125-5.359375-4.03125-15.125 0-9.71875 4.03125-15.09375 4.03125-5.375 11.25-5.375 7.28125 0 11.296875 5.375 4.03125 5.375 4.03125 15.09375zm8.984375-21.203125q0-13.953125-6.203125-20.765625-6.1875-6.8125-18.984375-6.8125-4.734375 0-8.9375.703125-4.203125.703125-8.15625 2.171875v8.734375q3.953125-2.140625 7.8125-3.15625 3.859375-1.03125 7.859375-1.03125 8.84375 0 13.234375 4.609375 4.390625 4.609375 4.390625 13.9375v4.453125q-2.78125-4.84375-7.125-7.234375-4.34375-2.390625-10.40625-2.390625-10.046875 0-16.203125 7.65625-6.15625 7.671875-6.15625 20.328125 0 12.6875 6.15625 20.34375 6.15625 7.671875 16.203125 7.671875 6.0625 0 10.40625-2.390625 4.34375-2.390625 7.125-7.21875v8.296875h8.984375z" stroke-linejoin="round"/><path id="l" d="m30.609375 48.390625q-7.21875 0-11.421875-5.640625-4.203125-5.640625-4.203125-15.453125 0-9.8125 4.171875-15.453125 4.1875-5.640625 11.453125-5.640625 7.1875 0 11.375 5.65625 4.203125 5.671875 4.203125 15.4375 0 9.71875-4.203125 15.40625-4.1875 5.6875-11.375 5.6875zm0 7.609375q11.71875 0 18.40625-7.625 6.703125-7.609375 6.703125-21.078125 0-13.421875-6.703125-21.078125-6.6875-7.640625-18.40625-7.640625-11.765625 0-18.4375 7.640625-6.65625 7.65625-6.65625 21.078125 0 13.46875 6.65625 21.078125 6.671875 7.625 18.4375 7.625z" stroke-linejoin="round"/><path id="m" d="m54.890625 33.015625v-33.015625h-8.984375v32.71875q0 7.765625-3.03125 11.609375-3.03125 3.859375-9.078125 3.859375-7.28125 0-11.484375-4.640625-4.203125-4.625-4.203125-12.640625v-30.90625h-9.03125v54.6875h9.03125v-8.5q3.234375 4.9375 7.59375 7.375 4.375 2.4375 10.09375 2.4375 9.421875 0 14.25-5.828125 4.84375-5.828125 4.84375-17.15625z" stroke-linejoin="round"/><path id="n" d="m19.671875 64.796875v-56.6875h11.921875q15.09375 0 22.09375 6.828125 7 6.84375 7 21.59375 0 14.640625-7 21.453125-7 6.8125-22.09375 6.8125zm-9.859375 8.109375h20.265625q21.1875 0 31.09375-8.8125 9.921875-8.8125 9.921875-27.5625 0-18.859375-9.96875-27.703125-9.953125-8.828125-31.046875-8.828125h-20.265625z" stroke-linejoin="round"/><path id="o" d="m40.578125 39.3125q7.078125-1.515625 11.046875-6.3125 3.984375-4.78125 3.984375-11.8125 0-10.78125-7.421875-16.703125-7.421875-5.90625-21.09375-5.90625-4.578125 0-9.4375.90625-4.859375.90625-10.03125 2.71875v9.515625q4.09375-2.390625 8.96875-3.609375 4.890625-1.21875 10.21875-1.21875 9.265625 0 14.125 3.65625 4.859375 3.65625 4.859375 10.640625 0 6.453125-4.515625 10.078125-4.515625 3.640625-12.5625 3.640625h-8.5v8.109375h8.890625q7.265625 0 11.125 2.90625 3.859375 2.90625 3.859375 8.375 0 5.609375-3.984375 8.609375-3.96875 3.015625-11.390625 3.015625-4.0625 0-8.703125-.890625-4.640625-.875-10.203125-2.71875v8.78125q5.625 1.5625 10.53125 2.34375 4.90625.78125 9.25.78125 11.234375 0 17.765625-5.109375 6.546875-5.09375 6.546875-13.78125 0-6.0625-3.46875-10.234375-3.46875-4.171875-9.859375-5.78125z" stroke-linejoin="round"/><path id="p" d="m9.8125 72.90625h46.09375v-8.3125h-36.234375v-21.578125h34.71875v-8.296875h-34.71875v-26.421875h37.109375v-8.296875h-46.96875z" stroke-linejoin="round"/><path id="q" d="m9.8125 72.90625h13.28125l32.328125-60.984375v60.984375h9.5625v-72.90625h-13.28125l-32.3125 60.984375v-60.984375h-9.578125z" stroke-linejoin="round"/><path id="r" d="m19.1875 8.296875h34.421875v-8.296875h-46.28125v8.296875q5.609375 5.8125 15.296875 15.59375 9.703125 9.796875 12.1875 12.640625 4.734375 5.3125 6.609375 9 1.890625 3.6875 1.890625 7.25 0 5.8125-4.078125 9.46875-4.078125 3.671875-10.625 3.671875-4.640625 0-9.796875-1.609375-5.140625-1.609375-11-4.890625v9.96875q5.953125 2.390625 11.125 3.609375 5.1875 1.21875 9.484375 1.21875 11.328125 0 18.0625-5.671875 6.734375-5.65625 6.734375-15.125 0-4.5-1.6875-8.53125-1.671875-4.015625-6.125-9.484375-1.21875-1.421875-7.765625-8.1875-6.53125-6.765625-18.453125-18.921875z" stroke-linejoin="round"/><path id="s" d="m-.296875 72.90625h61.671875v-8.3125h-25.875v-64.59375h-9.90625v64.59375h-25.890625z" stroke-linejoin="round"/><path id="t" d="m54.890625 33.015625v-33.015625h-8.984375v32.71875q0 7.765625-3.03125 11.609375-3.03125 3.859375-9.078125 3.859375-7.28125 0-11.484375-4.640625-4.203125-4.625-4.203125-12.640625v-30.90625h-9.03125v75.984375h9.03125v-29.796875q3.234375 4.9375 7.59375 7.375 4.375 2.4375 10.09375 2.4375 9.421875 0 14.25-5.828125 4.84375-5.828125 4.84375-17.15625z" stroke-linejoin="round"/><path id="u" d="m8.5 21.578125v33.109375h8.984375v-32.765625q0-7.765625 3.015625-11.65625 3.03125-3.875 9.09375-3.875 7.265625 0 11.484375 4.640625 4.234375 4.640625 4.234375 12.65625v31h8.984375v-54.6875h-8.984375v8.40625q-3.265625-4.984375-7.59375-7.40625-4.3125-2.421875-10.03125-2.421875-9.421875 0-14.3125 5.859375-4.875 5.859375-4.875 17.140625z" stroke-linejoin="round"/><path id="v" d="m44.28125 53.078125v-8.5q-3.796875 1.953125-7.90625 2.921875-4.09375.984375-8.5.984375-6.6875 0-10.03125-2.046875-3.34375-2.046875-3.34375-6.15625 0-3.125 2.390625-4.90625 2.390625-1.78125 9.625-3.390625l3.078125-.6875q9.5625-2.046875 13.59375-5.78125 4.03125-3.734375 4.03125-10.421875 0-7.625-6.03125-12.078125-6.03125-4.4375-16.578125-4.4375-4.390625 0-9.15625.859375-4.765625.859375-10.03125 2.5625v9.28125q4.984375-2.59375 9.8125-3.890625 4.828125-1.28125 9.578125-1.28125 6.34375 0 9.75 2.171875 3.421875 2.171875 3.421875 6.125 0 3.65625-2.46875 5.609375-2.453125 1.953125-10.8125 3.765625l-3.125.734375q-8.34375 1.75-12.0625 5.390625-3.703125 3.640625-3.703125 9.984375 0 7.71875 5.46875 11.90625 5.46875 4.203125 15.53125 4.203125 4.96875 0 9.359375-.734375 4.40625-.71875 8.109375-2.1875z" stroke-linejoin="round"/><path id="w" d="m46 62.703125v-27.203125h27.1875v-8.296875h-27.1875v-27.203125h-8.203125v27.203125h-27.203125v8.296875h27.203125v27.203125z" stroke-linejoin="round"/><path id="x" d="m4.890625 31.390625h26.3125v-8h-26.3125z" stroke-linejoin="round"/><path id="y" d="m72.609375 8.6875v-8.6875h-29.296875v8.6875q8.640625 4.734375 13.46875 12.84375 4.84375 8.109375 4.84375 17.96875 0 11.71875-6.453125 18.796875-6.4375 7.078125-16.984375 7.078125-10.546875 0-17.015625-7.109375-6.46875-7.09375-6.46875-18.765625 0-9.859375 4.828125-17.96875 4.890625-8.109375 13.578125-12.84375v-8.6875h-29.296875v8.6875h15.578125q-7.71875 6.796875-11.28125 14.0625-3.515625 7.28125-3.515625 16.265625 0 15.53125 9.375 25.140625 9.328125 9.625 24.21875 9.625 14.796875 0 24.21875-9.625 9.375-9.5625 9.375-24.65625 0-9.46875-3.46875-16.703125-3.46875-7.21875-11.328125-14.109375z" stroke-linejoin="round"/></defs><g stroke-linejoin="round"><path d="m0 445.9824h733.274v-445.9824h-733.274z" fill="none"/><g><g stroke="#000" stroke-width="1.5"><path clip-path="url(#a)" d="m657.305 131.3442 4.661721-4.630465.956457 1.580811 8.548785-4.61363.016074.026568-8.548784 4.61363.956457 1.58081z" stroke-linejoin="miter"/><path clip-path="url(#a)" d="m657.305 124.4592 4.661721-4.630465.956457 1.580811 8.548785-4.61363.016074.026568-8.548784 4.61363.956457 1.58081z" stroke-linejoin="miter"/><path clip-path="url(#a)" d="m505.43 75.4992h32.4" fill="none" stroke-linecap="round" stroke-linejoin="round"/><path clip-path="url(#a)" d="m359.63 259.0992h145.8v-229.5h-145.8z" fill="none" stroke-linecap="round" stroke-linejoin="round"/><path clip-path="url(#a)" d="m359.63 213.1992h-32.4" fill="none" stroke-linecap="round" stroke-linejoin="round"/><path clip-path="url(#a)" d="m359.63 144.3492h-32.4" fill="none" stroke-linecap="round" stroke-linejoin="round"/><path clip-path="url(#a)" d="m359.63 75.4992h-32.4" fill="none" stroke-linecap="round" stroke-linejoin="round"/><path clip-path="url(#a)" d="m505.43 213.1992h32.4" fill="none" stroke-linecap="round" stroke-linejoin="round"/><path clip-path="url(#a)" d="m505.43 167.2992h32.4" fill="none" stroke-linecap="round" stroke-linejoin="round"/><path clip-path="url(#a)" d="m537.83 213.1992v91.8 91.8" fill="none" stroke-linecap="round" stroke-linejoin="round"/><path clip-path="url(#a)" d="m537.83 396.7992v12.24h-8.1 16.2m-13.77 3.672h11.34m-7.29 3.672h3.24" fill="none" stroke-linecap="round" stroke-linejoin="round"/><path clip-path="url(#a)" d="m327.23 75.4992h-121.5-121.5" fill="none" stroke-linecap="round" stroke-linejoin="round"/><path clip-path="url(#a)" d="m84.23 75.4992v145.35m-3.24 7.344-11.34 17.136m14.58 6.12v145.35" fill="none" stroke-linecap="round" stroke-linejoin="round"/><path clip-path="url(#a)" d="m84.23 396.7992h226.8 226.8" fill="none" stroke-linecap="round" stroke-linejoin="round"/><path clip-path="url(#a)" d="m327.23 144.3492h-72.9-72.9" fill="none" stroke-linecap="round" stroke-linejoin="round"/><path clip-path="url(#a)" d="m181.43 144.3492v110.925m-9.72 3.672v23.256m0-11.628h-6.48m16.2 15.3v110.925" fill="none" stroke-linecap="round" stroke-linejoin="round"/><path clip-path="url(#a)" d="m327.23 213.1992v40.545m8.1 10.71h-16.2m8.1 0v40.545" fill="none" stroke-linecap="round" stroke-linejoin="round"/><path clip-path="url(#a)" d="m327.23 304.9992v30.6l8.1 2.55-16.2 5.1 16.2 5.1-16.2 5.1 16.2 5.1-16.2 5.1 8.1 2.55v30.6" fill="none" stroke-linecap="round" stroke-linejoin="round"/><path clip-path="url(#a)" d="m537.83 75.4992h72.9 72.9" fill="none" stroke-linecap="round" stroke-linejoin="round"/><path clip-path="url(#a)" d="m683.63 75.4992v40.545m-8.1 10.71h16.2m-8.1 0v40.545" fill="none" stroke-linecap="round" stroke-linejoin="round"/><path clip-path="url(#a)" d="m671.48 123.6942-14.175 7.65" fill="none" stroke-linecap="round" stroke-linejoin="round"/><path clip-path="url(#a)" d="m683.63 167.2992v99.45l8.1 2.55-16.2 5.1 16.2 5.1-16.2 5.1 16.2 5.1-16.2 5.1 8.1 2.55v99.45" fill="none" stroke-linecap="round" stroke-linejoin="round"/><path clip-path="url(#a)" d="m683.63 396.7992h-72.9-72.9" fill="none" stroke-linecap="round" stroke-linejoin="round"/><path clip-path="url(#a)" d="m537.83 167.2992h72.9 72.9" fill="none" stroke-linecap="round" stroke-linejoin="round"/><path clip-path="url(#a)" d="m84.23 228.1932c1.03111 0 2.020127-.386905 2.749231-1.075504.729105-.688599 1.138769-1.62267 1.138769-2.596496s-.409664-1.907897-1.138769-2.596496c-.729104-.688599-1.718121-1.075504-2.749231-1.075504s-2.020127.386905-2.749231 1.075504c-.729105.688599-1.138769 1.62267-1.138769 2.596496s.409664 1.907897 1.138769 2.596496c.729104.688599 1.718121 1.075504 2.749231 1.075504z" fill="none" stroke-linejoin="miter"/><path clip-path="url(#a)" d="m84.23 251.4492c1.03111 0 2.020127-.386905 2.749231-1.075504.729105-.688599 1.138769-1.62267 1.138769-2.596496s-.409664-1.907897-1.138769-2.596496c-.729104-.688599-1.718121-1.075504-2.749231-1.075504s-2.020127.386905-2.749231 1.075504c-.729105.688599-1.138769 1.62267-1.138769 2.596496s.409664 1.907897 1.138769 2.596496c.729104.688599 1.718121 1.075504 2.749231 1.075504z" fill="none" stroke-linejoin="miter"/><path clip-path="url(#a)" d="m181.43 262.6182c1.03111 0 2.020127-.386905 2.749231-1.075504.729105-.688599 1.138769-1.62267 1.138769-2.596496s-.409664-1.907897-1.138769-2.596496c-.729104-.688599-1.718121-1.075504-2.749231-1.075504s-2.020127.386905-2.749231 1.075504c-.729105.688599-1.138769 1.62267-1.138769 2.596496s.409664 1.907897 1.138769 2.596496c.729104.688599 1.718121 1.075504 2.749231 1.075504z" fill="none" stroke-linejoin="miter"/><path clip-path="url(#a)" d="m181.43 285.8742c1.03111 0 2.020127-.386905 2.749231-1.075504.729105-.688599 1.138769-1.62267 1.138769-2.596496s-.409664-1.907897-1.138769-2.596496c-.729104-.688599-1.718121-1.075504-2.749231-1.075504s-2.020127.386905-2.749231 1.075504c-.729105.688599-1.138769 1.62267-1.138769 2.596496s.409664 1.907897 1.138769 2.596496c.729104.688599 1.718121 1.075504 2.749231 1.075504z" fill="none" stroke-linejoin="miter"/><path clip-path="url(#a)" d="m181.43 399.0942c.644444 0 1.262579-.241816 1.718269-.67219.455691-.430374.711731-1.014169.711731-1.62281s-.25604-1.192436-.711731-1.62281c-.45569-.430374-1.073825-.67219-1.718269-.67219s-1.262579.241816-1.718269.67219c-.455691.430374-.711731 1.014169-.711731 1.62281s.25604 1.192436.711731 1.62281c.45569.430374 1.073825.67219 1.718269.67219z" stroke-linejoin="miter"/><path clip-path="url(#a)" d="m335.33 253.7442-8.1 10.71-8.1-10.71z" fill="none" stroke-linejoin="miter"/><path clip-path="url(#a)" d="m327.23 399.0942c.644444 0 1.262579-.241816 1.718269-.67219.455691-.430374.711731-1.014169.711731-1.62281s-.25604-1.192436-.711731-1.62281c-.45569-.430374-1.073825-.67219-1.718269-.67219s-1.262579.241816-1.718269.67219c-.455691.430374-.711731 1.014169-.711731 1.62281s.25604 1.192436.711731 1.62281c.45569.430374 1.073825.67219 1.718269.67219z" stroke-linejoin="miter"/><path clip-path="url(#a)" d="m675.53 116.0442 8.1 10.71 8.1-10.71z" fill="none" stroke-linejoin="miter"/><path clip-path="url(#a)" d="m537.83 399.0942c.644444 0 1.262579-.241816 1.718269-.67219.455691-.430374.711731-1.014169.711731-1.62281s-.25604-1.192436-.711731-1.62281c-.45569-.430374-1.073825-.67219-1.718269-.67219s-1.262579.241816-1.718269.67219c-.455691.430374-.711731 1.014169-.711731 1.62281s.25604 1.192436.711731 1.62281c.45569.430374 1.073825.67219 1.718269.67219z" stroke-linejoin="miter"/><path clip-path="url(#a)" d="m683.63 169.5942c.644444 0 1.262579-.241816 1.718269-.67219.455691-.430374.711731-1.014169.711731-1.62281s-.25604-1.192436-.711731-1.62281c-.45569-.430374-1.073825-.67219-1.718269-.67219s-1.262579.241816-1.718269.67219c-.455691.430374-.711731 1.014169-.711731 1.62281s.25604 1.192436.711731 1.62281c.45569.430374 1.073825.67219 1.718269.67219z" stroke-linejoin="miter"/></g><g stroke-linejoin="round"><g transform="matrix(.16 0 0 -.16 400.075 101.55595)"><use xlink:href="#b"/><use x="60.240234" xlink:href="#c"/><use x="121.519531" xlink:href="#d"/><use x="162.632812" xlink:href="#e"/><use x="201.841797" xlink:href="#f"/><use x="229.625" xlink:href="#g"/><use x="284.605469" xlink:href="#h"/><use x="312.388672" xlink:href="#i"/></g><g transform="matrix(.16 0 0 -.16 408.72625 119.47245)"><use xlink:href="#j"/><use x="68.408203" xlink:href="#d"/><use x="109.505859" xlink:href="#k"/><use x="172.982422" xlink:href="#l"/><use x="234.164062" xlink:href="#m"/></g></g><g stroke-linejoin="round" transform="matrix(.16 0 0 -.16 364.49 217.6142)"><use xlink:href="#n"/><use x="77.001953" xlink:href="#o"/></g><g stroke-linejoin="round" transform="matrix(.16 0 0 -.16 364.49 148.7642)"><use xlink:href="#n"/><path d="m10.796875 72.90625h38.71875v-8.3125h-29.6875v-17.859375q2.140625.734375 4.28125 1.09375 2.15625.359375 4.3125.359375 12.203125 0 19.328125-6.6875 7.140625-6.6875 7.140625-18.109375 0-11.765625-7.328125-18.296875-7.328125-6.515625-20.65625-6.515625-4.59375 0-9.359375.78125-4.75.78125-9.828125 2.34375v9.921875q4.390625-2.390625 9.078125-3.5625 4.6875-1.171875 9.90625-1.171875 8.453125 0 13.375 4.4375 4.9375 4.4375 4.9375 12.0625 0 7.609375-4.9375 12.046875-4.921875 4.453125-13.375 4.453125-3.953125 0-7.890625-.875-3.921875-.875-8.015625-2.734375z" transform="translate(77.001953)"/></g><g stroke-linejoin="round" transform="matrix(.16 0 0 -.16 364.49 79.9142)"><use xlink:href="#p"/><use x="63.183594" xlink:href="#q"/></g><g stroke-linejoin="round" transform="matrix(.16 0 0 -.16 463.8825 217.6142)"><path d="m59.515625 10.40625v19.578125h-16.109375v8.109375h25.875v-31.3125q-5.703125-4.046875-12.59375-6.125-6.875-2.078125-14.6875-2.078125-17.09375 0-26.75 9.984375-9.640625 10-9.640625 27.8125 0 17.875 9.640625 27.859375 9.65625 9.984375 26.75 9.984375 7.125 0 13.546875-1.765625 6.421875-1.75 11.84375-5.171875v-10.5q-5.46875 4.640625-11.625 6.984375-6.15625 2.34375-12.9375 2.34375-13.390625 0-20.109375-7.46875-6.703125-7.46875-6.703125-22.265625 0-14.75 6.703125-22.21875 6.71875-7.46875 20.109375-7.46875 5.21875 0 9.3125.90625 4.109375.90625 7.375 2.8125z"/><use x="77.490234" xlink:href="#q"/><use x="152.294922" xlink:href="#n"/></g><g stroke-linejoin="round" transform="matrix(.16 0 0 -.16 479.445 171.7142)"><use xlink:href="#j"/><use x="68.408203" xlink:href="#r"/></g><g stroke-linejoin="round" transform="matrix(.16 0 0 -.16 469.265 79.9142)"><path d="m28.609375 0-27.828125 72.90625h10.296875l23.109375-61.375 23.140625 61.375h10.25l-27.78125-72.90625z"/><use x="68.408203" xlink:href="#o"/><use x="132.03125" xlink:href="#o"/></g><g stroke-linejoin="round"><g transform="matrix(.16 0 0 -.16 7.2 231.60595)"><use xlink:href="#s"/><use x="60.818359" xlink:href="#l"/><use x="122" xlink:href="#k"/><use x="185.476562" xlink:href="#k"/><use x="248.953125" xlink:href="#h"/><use x="276.736328" xlink:href="#i"/></g><g transform="matrix(.16 0 0 -.16 13.5125 249.52245)"><path d="m53.515625 70.515625v-9.625q-5.609375 2.6875-10.59375 4-4.984375 1.328125-9.625 1.328125-8.046875 0-12.421875-3.125-4.375-3.125-4.375-8.890625 0-4.84375 2.90625-7.3125 2.90625-2.453125 11.015625-3.96875l5.953125-1.21875q11.03125-2.109375 16.28125-7.40625 5.25-5.296875 5.25-14.171875 0-10.609375-7.109375-16.078125-7.09375-5.46875-20.8125-5.46875-5.171875 0-11.015625 1.171875-5.828125 1.171875-12.078125 3.46875v10.15625q6-3.359375 11.765625-5.078125 5.765625-1.703125 11.328125-1.703125 8.4375 0 13.03125 3.3125 4.59375 3.328125 4.59375 9.484375 0 5.359375-3.296875 8.390625-3.296875 3.03125-10.8125 4.546875l-6.015625 1.171875q-11.03125 2.1875-15.96875 6.875-4.921875 4.6875-4.921875 13.046875 0 9.671875 6.8125 15.234375 6.8125 5.5625 18.765625 5.5625 5.140625 0 10.453125-.9375 5.328125-.921875 10.890625-2.765625z"/><path d="m4.203125 54.6875h8.984375l11.234375-42.671875 11.171875 42.671875h10.59375l11.234375-42.671875 11.1875 42.671875h8.984375l-14.3125-54.6875h-10.59375l-11.765625 44.828125-11.8125-44.828125h-10.609375z" transform="translate(63.476562)"/><use x="145.263672" xlink:href="#f"/><use x="173.046875" xlink:href="#e"/><use x="212.255859" xlink:href="#g"/><use x="267.236328" xlink:href="#t"/></g></g><g stroke-linejoin="round"><g transform="matrix(.16 0 0 -.16 118.645 266.03095)"><use xlink:href="#b"/><use x="60.287109" xlink:href="#u"/><use x="123.666016" xlink:href="#v"/><use x="175.765625" xlink:href="#t"/></g><g transform="matrix(.16 0 0 -.16 108.3975 283.94745)"><path d="m19.671875 34.8125v-26.703125h15.828125q7.953125 0 11.78125 3.296875 3.84375 3.296875 3.84375 10.078125 0 6.84375-3.84375 10.078125-3.828125 3.25-11.78125 3.25zm0 29.984375v-21.96875h14.609375q7.21875 0 10.75 2.703125 3.546875 2.71875 3.546875 8.28125 0 5.515625-3.546875 8.25-3.53125 2.734375-10.75 2.734375zm-9.859375 8.109375h25.203125q11.28125 0 17.375-4.6875 6.109375-4.6875 6.109375-13.328125 0-6.703125-3.125-10.65625-3.125-3.953125-9.1875-4.921875 7.28125-1.5625 11.3125-6.53125 4.03125-4.953125 4.03125-12.375 0-9.765625-6.640625-15.09375-6.640625-5.3125-18.90625-5.3125h-26.171875z"/><use x="68.603516" xlink:href="#u"/><use x="131.982422" xlink:href="#e"/><use x="171.191406" xlink:href="#e"/><use x="210.400391" xlink:href="#l"/><use x="271.582031" xlink:href="#m"/></g></g><use stroke-linejoin="round" transform="matrix(.16 0 0 -.16 302.4825 240.5642)" xlink:href="#w"/><g stroke-linejoin="round"><g transform="matrix(.16 0 0 -.16 265.165 254.55595)"><use xlink:href="#b"/><use x="60.302734" xlink:href="#t"/><use x="123.681641" xlink:href="#l"/><use x="184.863281" xlink:href="#e"/><use x="224.072266" xlink:href="#l"/></g><g transform="matrix(.16 0 0 -.16 235.875 272.47245)"><use xlink:href="#s"/><use x="60.865234" xlink:href="#d"/><use x="101.978516" xlink:href="#c"/><use x="163.257812" xlink:href="#m"/><use x="226.636719" xlink:href="#v"/><use x="278.736328" xlink:href="#f"/><use x="306.519531" xlink:href="#v"/><use x="358.619141" xlink:href="#e"/><use x="397.828125" xlink:href="#l"/><use x="459.009766" xlink:href="#d"/></g></g><use stroke-linejoin="round" transform="matrix(.16 0 0 -.16 310.1175 286.4642)" xlink:href="#x"/><g stroke-linejoin="round" transform="matrix(.16 0 0 -.16 267.89 355.3142)"><use transform="translate(0 .78125)" xlink:href="#r"/><use transform="translate(63.623047 .78125)" xlink:href="#r"/><path d="m31.78125 66.40625q-7.609375 0-11.453125-7.5-3.828125-7.484375-3.828125-22.53125 0-14.984375 3.828125-22.484375 3.84375-7.5 11.453125-7.5 7.671875 0 11.5 7.5 3.84375 7.5 3.84375 22.484375 0 15.046875-3.84375 22.53125-3.828125 7.5-11.5 7.5zm0 7.8125q12.265625 0 18.734375-9.703125 6.46875-9.6875 6.46875-28.140625 0-18.40625-6.46875-28.109375-6.46875-9.6875-18.734375-9.6875-12.25 0-18.71875 9.6875-6.46875 9.703125-6.46875 28.109375 0 18.453125 6.46875 28.140625 6.46875 9.703125 18.71875 9.703125z" transform="translate(127.246094 .78125)"/><use transform="translate(222.65625 .78125)" xlink:href="#y"/></g><use stroke-linejoin="round" transform="matrix(.16 0 0 -.16 640.6575 102.8642)" xlink:href="#w"/><g stroke-linejoin="round" transform="matrix(.16 0 0 -.16 622.72 125.8142)"><path d="m9.8125 72.90625h9.859375v-64.609375h35.5v-8.296875h-45.359375z"/><use x="55.712891" xlink:href="#p"/><use x="118.896484" xlink:href="#n"/></g><use stroke-linejoin="round" transform="matrix(.16 0 0 -.16 648.2925 148.7642)" xlink:href="#x"/><g stroke-linejoin="round" transform="matrix(.16 0 0 -.16 634.21 286.4642)"><path d="m12.40625 8.296875h16.109375v55.625l-17.53125-3.515625v8.984375l17.4375 3.515625h9.859375v-64.609375h16.109375v-8.296875h-41.984375z" transform="translate(0 .21875)"/><path d="m9.8125 72.90625h9.859375v-30.8125l32.71875 30.8125h12.703125l-36.1875-33.984375 38.765625-38.921875h-12.984375l-35.015625 35.109375v-35.109375h-9.859375z" transform="translate(95.410156 .21875)"/><use transform="translate(160.986328 .21875)" xlink:href="#y"/></g></g></g></svg>